<?xml version="1.0" encoding="UTF-8" standalone="no"?>
<svg
   version="1.0"
   width="440.20996pt"
   height="243.19975pt"
   viewBox="0 0 440.20996 243.19975"
   preserveAspectRatio="xMidYMid meet"
   id="svg874"
   sodipodi:docname="cookies-da-lili.svg"
   inkscape:version="1.1.2 (0a00cf5339, 2022-02-04, custom)"
   xmlns:inkscape="http://www.inkscape.org/namespaces/inkscape"
   xmlns:sodipodi="http://sodipodi.sourceforge.net/DTD/sodipodi-0.dtd"
   xmlns="http://www.w3.org/2000/svg"
   xmlns:svg="http://www.w3.org/2000/svg">
  <defs
     id="defs878">
    <clipPath
       clipPathUnits="userSpaceOnUse"
       id="clipPath1454">
      <path
         d="M 0,595.276 H 841.89 V 0 H 0 Z"
         id="path1452" />
    </clipPath>
  </defs>
  <sodipodi:namedview
     id="namedview876"
     pagecolor="#ffffff"
     bordercolor="#666666"
     borderopacity="1.0"
     inkscape:pageshadow="2"
     inkscape:pageopacity="0.0"
     inkscape:pagecheckerboard="0"
     inkscape:document-units="pt"
     showgrid="false"
     inkscape:zoom="0.6942402"
     inkscape:cx="394.67608"
     inkscape:cy="254.95499"
     inkscape:window-width="1920"
     inkscape:window-height="1009"
     inkscape:window-x="-8"
     inkscape:window-y="-8"
     inkscape:window-maximized="1"
     inkscape:current-layer="svg874"
     fit-margin-top="0"
     fit-margin-left="0"
     fit-margin-right="0"
     fit-margin-bottom="0" />
  <g
     id="g1450"
     clip-path="url(#clipPath1454)"
     transform="matrix(0.99999998,0,0,-0.99999998,-186.07377,434.64249)">
    <g
       id="g1456"
       transform="translate(249.3135,389.1794)">
      <path
         d="m 0,0 c -1.359,3.85 -4.706,5.721 -8.157,5.721 -4.81,-0.103 -9.83,-3.745 -9.83,-11.026 0,-7.282 4.915,-11.028 9.62,-11.131 3.556,-0.105 7.111,1.976 8.367,6.346 H 16.941 C 15.165,-24.448 3.137,-31.626 -8.994,-31.626 c -13.384,0 -26.771,8.634 -26.771,26.321 0,17.581 13.804,26.528 26.876,26.528 12.026,0 23.842,-6.971 25.725,-21.223 z"
         style="fill:#77442d;fill-opacity:1;fill-rule:nonzero;stroke:none"
         id="path1458" />
    </g>
    <g
       id="g1460"
       transform="translate(297.0376,357.4504)">
      <path
         d="m 0,0 c -13.489,0 -26.979,8.737 -26.979,26.424 0,17.789 13.595,26.528 27.084,26.423 C 13.387,52.743 26.667,43.9 26.667,26.424 26.667,8.842 13.492,0 0,0 m 0,15.5 c 4.706,0.104 8.994,3.745 8.994,10.924 0,7.178 -4.288,10.82 -8.784,10.923 -4.601,0.103 -9.411,-3.537 -9.411,-10.923 0,-7.386 4.6,-11.028 9.201,-10.924"
         style="fill:#77442d;fill-opacity:1;fill-rule:nonzero;stroke:none"
         id="path1462" />
    </g>
    <g
       id="g1464"
       transform="translate(353.5474,357.4504)">
      <path
         d="m 0,0 c -13.489,0 -26.979,8.737 -26.979,26.424 0,17.789 13.592,26.528 27.084,26.423 C 13.385,52.743 26.667,43.9 26.667,26.424 26.667,8.842 13.491,0 0,0 m 0,15.5 c 4.706,0.104 8.994,3.745 8.994,10.924 0,7.178 -4.288,10.82 -8.784,10.923 -4.603,0.103 -9.411,-3.537 -9.411,-10.923 0,-7.386 4.6,-11.028 9.201,-10.924"
         style="fill:#77442d;fill-opacity:1;fill-rule:nonzero;stroke:none"
         id="path1466" />
    </g>
    <g
       id="g1468"
       transform="translate(403.2417,391.4685)">
      <path
         d="M 0,0 C 10.562,0 12.131,8.634 12.131,17.374 H 28.967 C 29.281,7.178 27.503,-1.664 18.197,-7.594 l 13.28,-23.512 v -1.769 H 13.491 L 2.929,-13.212 c -0.941,-0.417 -2.3,-0.625 -3.241,-0.625 H -2.09 V -32.875 H -19.763 V 43.174 H -2.09 V 0 Z"
         style="fill:#77442d;fill-opacity:1;fill-rule:nonzero;stroke:none"
         id="path1470" />
    </g>
    <g
       id="g1472"
       transform="translate(448.521,432.1443)">
      <path
         d="m 0,0 c 5.123,0 10.353,-3.33 10.353,-9.988 0,-6.761 -5.23,-10.09 -10.353,-10.09 -5.125,0 -10.25,3.329 -10.25,10.09 C -10.25,-3.33 -5.125,0 0,0 M 8.889,-73.55 H -8.889 l 0.103,49.415 H 8.889 Z"
         style="fill:#77442d;fill-opacity:1;fill-rule:nonzero;stroke:none"
         id="path1474" />
    </g>
    <g
       id="g1476"
       transform="translate(512.0937,392.6135)">
      <path
         d="m 0,0 c -0.312,-10.403 -9.306,-15.085 -18.51,-15.605 -5.019,-0.313 -10.037,0.623 -14.116,2.601 1.149,-6.659 7.111,-8.74 14.221,-8.429 5.962,0.314 12.863,2.083 16.419,3.956 l 0.732,-13.213 c -5.752,-3.33 -11.609,-4.058 -18.302,-4.37 -17.358,-0.831 -29.698,7.179 -30.22,25.072 -0.523,18.102 12.547,27.047 25.517,27.568 C -12.548,17.892 0.314,13.419 0,0 m -22.064,-4.995 c 2.508,0.105 5.123,1.873 5.02,4.683 0,3.536 -4.183,4.264 -6.903,4.264 -3.346,-0.312 -6.693,-2.081 -7.947,-7.177 2.51,-1.145 6.483,-2.082 9.83,-1.77"
         style="fill:#77442d;fill-opacity:1;fill-rule:nonzero;stroke:none"
         id="path1478" />
    </g>
    <g
       id="g1480"
       transform="translate(532.4858,374.511)">
      <path
         d="m 0,0 c 0,-3.225 2.927,-4.473 5.856,-4.473 2.928,0 5.855,1.353 5.855,3.952 0,3.122 -2.719,3.538 -5.542,3.85 -9.933,1.145 -22.692,3.017 -22.692,15.293 0,11.651 11.189,17.061 22.482,17.061 11.504,0 22.798,-6.033 22.276,-17.061 H 12.653 C 12.338,21.118 9.306,22.471 6.379,22.366 3.555,22.264 1.046,21.118 1.046,19.039 0.732,15.917 4.496,15.813 6.901,15.5 18.09,14.357 30.011,12.796 29.698,-0.521 29.384,-11.859 18.09,-17.374 6.586,-17.374 -4.915,-17.374 -17.045,-14.46 -17.36,0 Z"
         style="fill:#77442d;fill-opacity:1;fill-rule:nonzero;stroke:none"
         id="path1482" />
    </g>
    <g
       id="g1484"
       transform="translate(247.229,275.7844)">
      <path
         d="m 0,0 c -2.825,-5.515 -8.681,-8.427 -14.641,-8.427 -15.687,0.313 -22.692,12.172 -22.692,26.632 -0.313,13.316 7.005,26.008 21.751,26.008 5.437,0 10.981,-1.769 13.386,-6.866 V 68.973 H 14.326 V 8.427 c 0,-4.057 -0.21,-5.826 4.286,-5.826 V -6.971 C 12.233,-8.324 0,-10.195 0,-0.623 Z m -2.72,18.31 c 0,6.345 -2.927,11.338 -8.259,11.338 -5.859,0 -8.577,-4.785 -8.577,-11.443 0,-6.762 2.928,-11.131 8.889,-11.026 5.439,0 7.947,4.785 7.947,11.131"
         style="fill:#77442d;fill-opacity:1;fill-rule:nonzero;stroke:none"
         id="path1486" />
    </g>
    <g
       id="g1488"
       transform="translate(319.3906,314.9001)">
      <path
         d="m 0,0 v -30.688 c 0,-4.06 -0.209,-5.828 4.288,-5.828 v -9.57 c -6.379,-1.353 -18.614,-3.224 -18.614,6.348 v 0.623 c -2.824,-5.515 -8.679,-8.427 -14.641,-8.427 -15.684,0.313 -22.692,12.171 -22.692,26.631 C -51.137,-3.64 -39.214,4.89 -22.065,4.578 -14.536,4.475 -7.006,2.809 0,0 m -17.255,-10.195 c -2.091,0.52 -4.391,0.728 -6.169,0.728 -6.274,0 -10.143,-3.537 -10.458,-11.859 0.105,-6.658 3.034,-10.716 8.889,-10.611 5.332,0 7.635,4.578 7.738,10.819 z"
         style="fill:#77442d;fill-opacity:1;fill-rule:nonzero;stroke:none"
         id="path1490" />
    </g>
    <g
       id="g1492"
       transform="translate(625.3076,207.0578)">
      <path
         d="m 0,0 c -0.86,3.991 -1.353,5.596 -4.603,4.641 -57.069,-16.778 -62.324,49.114 -62.788,53.175 -0.462,4.059 -0.027,6.616 -3.333,6.871 -3.304,0.252 -4.956,0.139 -4.956,0.139 -5.988,0.356 -10.748,-0.4 -11.763,-7.846 -4.784,-35.08 -16.505,-39.772 -26.261,-31.679 -3.982,3.304 -8.291,9.262 -12.08,17.265 15.551,31.489 22.226,70.623 13.002,88.206 -8.879,16.926 -46.076,8.387 -41.773,-42.83 1.522,-18.092 5.434,-33.614 10.714,-46.17 -5.552,-10.43 -12.302,-19.243 -20.175,-23.104 -23.473,-11.515 -24.603,25.135 -24.743,27.177 -0.137,2.042 0.594,5.226 -2.616,5.952 -3.211,0.726 -1.171,0.219 -6.169,1.155 -4.999,0.934 -9.509,0.114 -11.271,-4.442 -18.343,-47.381 -35.98,-60.266 -46.525,-17.272 -0.637,2.591 -1.174,5.21 -1.625,7.838 15.518,18.141 26.416,38.141 31.271,55.571 13.476,48.369 -30.892,61.804 -45.709,11.797 -6.618,-22.34 -7.263,-46.819 -3.588,-67.583 -10.129,-10.902 -22.716,-20.678 -38.053,-27.505 -61.126,-27.212 -96.66,-2.145 -113.019,18.505 -0.718,0.909 -2.368,2.528 -4.601,0.633 -2.232,-1.892 -1.234,-0.992 -5.155,-4.142 -3.922,-3.151 -4.638,-8.367 -1.246,-12.847 7.906,-10.446 29.23,-25.797 61.689,-28.658 40.876,-3.607 77.073,14.322 103.939,39.181 5.667,-18.304 15.144,-31.549 26.846,-34.082 26.52,-5.742 42.828,32.23 42.828,32.23 11.995,-27.334 41.344,-31.438 64.605,1.161 0.585,0.819 1.158,1.66 1.728,2.504 8.607,-12.996 18.843,-20.191 28.22,-20.507 19.625,-0.664 29.999,24.405 29.999,24.405 21.178,-51.753 63.582,-45.255 70.597,-44.448 7.018,0.808 7.414,6.874 7.565,8.037 C 1.103,-5.511 0.538,-2.5 0,0 m -242.27,118.365 c 4.618,-3.44 0.375,-30.823 -16.568,-58.229 -0.433,33.478 10.498,62.75 16.568,58.229 m 108.68,-52.301 c -1.493,6.906 -2.504,14.42 -2.816,22.404 -1.218,31.046 15.716,52.075 10.717,8.629 -0.553,-4.805 -3.248,-17.29 -7.901,-31.033"
         style="fill:#f386a8;fill-opacity:1;fill-rule:nonzero;stroke:none"
         id="path1494" />
    </g>
    <g
       id="g1496"
       transform="translate(430.856,269.8601)">
      <path
         d="m 0,0 c 8.283,-0.235 9.644,7.965 9.518,14.866 0.309,6.023 -5.332,8.112 -10.644,7.85 -8.431,-0.417 -10.249,-8.479 -9.58,-15.65 C -10.164,1.264 -5.21,0.147 0,0"
         style="fill:#f386a8;fill-opacity:1;fill-rule:nonzero;stroke:none"
         id="path1498" />
    </g>
    <g
       id="g1500"
       transform="translate(550.564,281.5334)">
      <path
         d="m 0,0 c 8.283,-0.235 9.644,7.964 9.518,14.865 0.31,6.024 -5.333,8.113 -10.644,7.851 -8.431,-0.418 -10.249,-8.48 -9.58,-15.65 C -10.164,1.263 -5.21,0.147 0,0"
         style="fill:#f386a8;fill-opacity:1;fill-rule:nonzero;stroke:none"
         id="path1502" />
    </g>
  </g>
</svg>
